<svg width="36" height="33" viewBox="0 0 36 33" fill="none" xmlns="http://www.w3.org/2000/svg">
<path d="M1.28571 6.57359H34.7143C35.4244 6.57359 36 5.99981 36 5.29194V2.08783C36 1.37996 35.4244 0.806183 34.7143 0.806183H1.28571C0.575598 0.806183 0 1.37996 0 2.08783V5.29194C0 5.99981 0.575598 6.57359 1.28571 6.57359ZM1.28571 19.39H34.7143C35.4244 19.39 36 18.8163 36 18.1084V14.9043C36 14.1964 35.4244 13.6226 34.7143 13.6226H1.28571C0.575598 13.6226 0 14.1964 0 14.9043V18.1084C0 18.8163 0.575598 19.39 1.28571 19.39ZM1.28571 32.2065H34.7143C35.4244 32.2065 36 31.6327 36 30.9249V27.7207C36 27.0129 35.4244 26.4391 34.7143 26.4391H1.28571C0.575598 26.4391 0 27.0129 0 27.7207V30.9249C0 31.6327 0.575598 32.2065 1.28571 32.2065Z" fill="#4A4A4A"/>
</svg>
