<svg width="29" height="29" viewBox="0 0 29 29" fill="none" xmlns="http://www.w3.org/2000/svg">
<path d="M14.0551 7.81245C10.0662 7.81245 6.84878 11.0187 6.84878 14.9937C6.84878 18.9687 10.0662 22.175 14.0551 22.175C18.0439 22.175 21.2613 18.9687 21.2613 14.9937C21.2613 11.0187 18.0439 7.81245 14.0551 7.81245ZM14.0551 19.6625C11.4774 19.6625 9.37003 17.5687 9.37003 14.9937C9.37003 12.4187 11.4711 10.325 14.0551 10.325C16.639 10.325 18.7401 12.4187 18.7401 14.9937C18.7401 17.5687 16.6328 19.6625 14.0551 19.6625ZM23.2369 7.5187C23.2369 8.44995 22.4843 9.1937 21.5561 9.1937C20.6216 9.1937 19.8753 8.4437 19.8753 7.5187C19.8753 6.5937 20.6279 5.8437 21.5561 5.8437C22.4843 5.8437 23.2369 6.5937 23.2369 7.5187ZM28.0098 9.2187C27.9031 6.97495 27.3888 4.98745 25.7394 3.34995C24.0962 1.71245 22.1017 1.19995 19.8502 1.08745C17.5296 0.956201 10.5742 0.956201 8.25366 1.08745C6.00836 1.1937 4.01394 1.7062 2.36446 3.3437C0.714983 4.9812 0.206969 6.9687 0.094077 9.21245C-0.0376303 11.525 -0.0376303 18.4562 0.094077 20.7687C0.200697 23.0125 0.714983 25 2.36446 26.6375C4.01394 28.275 6.00209 28.7875 8.25366 28.9C10.5742 29.0312 17.5296 29.0312 19.8502 28.9C22.1017 28.7937 24.0962 28.2812 25.7394 26.6375C27.3826 25 27.8969 23.0125 28.0098 20.7687C28.1415 18.4562 28.1415 11.5312 28.0098 9.2187ZM25.0118 23.25C24.5226 24.475 23.5756 25.4187 22.3401 25.9125C20.4899 26.6437 16.0997 26.475 14.0551 26.475C12.0105 26.475 7.61394 26.6375 5.77003 25.9125C4.54077 25.425 3.59373 24.4812 3.09826 23.25C2.36446 21.4062 2.5338 17.0312 2.5338 14.9937C2.5338 12.9562 2.37073 8.57495 3.09826 6.73745C3.58746 5.51245 4.53449 4.5687 5.77003 4.07495C7.62021 3.3437 12.0105 3.51245 14.0551 3.51245C16.0997 3.51245 20.4962 3.34995 22.3401 4.07495C23.5693 4.56245 24.5164 5.5062 25.0118 6.73745C25.7456 8.5812 25.5763 12.9562 25.5763 14.9937C25.5763 17.0312 25.7456 21.4125 25.0118 23.25Z" fill="#4A4A4A"/>
</svg>
