<svg width="32" height="23" viewBox="0 0 32 23" fill="none" xmlns="http://www.w3.org/2000/svg">
<path d="M30.5364 3.95688C30.1875 2.63092 29.1593 1.58663 27.854 1.23223C25.4878 0.588257 16 0.588257 16 0.588257C16 0.588257 6.51223 0.588257 4.14606 1.23223C2.84068 1.58668 1.81256 2.63092 1.46362 3.95688C0.82962 6.36027 0.82962 11.3747 0.82962 11.3747C0.82962 11.3747 0.82962 16.3892 1.46362 18.7925C1.81256 20.1185 2.84068 21.1193 4.14606 21.4737C6.51223 22.1177 16 22.1177 16 22.1177C16 22.1177 25.4878 22.1177 27.854 21.4737C29.1593 21.1193 30.1875 20.1185 30.5364 18.7925C31.1704 16.3892 31.1704 11.3747 31.1704 11.3747C31.1704 11.3747 31.1704 6.36027 30.5364 3.95688ZM12.897 15.9275V6.82197L20.8269 11.3748L12.897 15.9275Z" fill="#4A4A4A"/>
</svg>
